{"title":"Battle.Los.Angeles.2011.R5.NEW.AUDIO.x264.Feel-Free","uid":6293922,"size":1440371794,"categoryP":"video","categoryS":"movies","magnet":"?xt=urn:btih:1518cc59207a79c638b12e63d8bdc84e7978eff5&amp;dn=Battle.Los.Angeles.2011.R5.NEW.AUDIO.x264.Feel-Free&amp;tr=udp%3A%2F%2Ftracker.openbittorrent.com%3A80&amp;tr=udp%3A%2F%2Fopen.demonii.com%3A1337&amp;tr=udp%3A%2F%2Ftracker.coppersurfer.tk%3A6969&amp;tr=udp%3A%2F%2Fexodus.desync.com%3A6969","seeders":0,"leechers":0,"uploader":"qwersd","files":11,"time":1301931650,"description":"Genre:Action | Sci-Fi | Thriller\nLanguage:English\nIMDb:http://www.imdb.com/title/tt1217613/\nSource:DVD5/Audio:CM8 Thx.\nSubtitles:Romana\n\n\nFormat : MPEG-4\nFormat profile : Base Media\nCodec ID : isom\nFile size : 1.34 GiB\nDuration : 1h 51mn\nOverall bit rate : 1 723 Kbps\n\n\nVideo\nFormat profile : &lt;a class=&quot;__cf_email__&quot; href=&quot;/cdn-cgi/l/email-protection&quot; data-cfemail=&quot;622a0b050a222e564c53&quot;&gt;[email&amp;#160;protected]&lt;/a&gt;&lt;script cf-hash='f9e31' type=&quot;text/javascript&quot;&gt;\n/* &lt;![CDATA[ */!function(){try{var t=&quot;currentScript&quot;in document?document.currentScript:function(){for(var t=document.getElementsByTagName(&quot;script&quot;),e=t.length;e--;)if(t[e].getAttribute(&quot;cf-hash&quot;))return t[e]}();if(t&amp;&amp;t.previousSibling){var e,r,n,i,c=t.previousSibling,a=c.getAttribute(&quot;data-cfemail&quot;);if(a){for(e=&quot;&quot;,r=parseInt(a.substr(0,2),16),n=2;a.length-n;n+=2)i=parseInt(a.substr(n,2),16)^r,e+=String.fromCharCode(i);e=document.createTextNode(e),c.parentNode.replaceChild(e,c)}}}catch(u){}}();/* ]]&gt; */&lt;/script&gt;\nFormat settings, CABAC : Yes\nFormat settings, ReFrames : 3 frames\nCodec ID : avc1\nCodec ID/Info : Advanced Video Coding\nDuration : 1h 51mn\nBit rate mode : Variable\nBit rate : 1 287 Kbps\nMaximum bit rate : 11.7 Mbps\nWidth : 720 pixels\nHeight : 304 pixels\nDisplay aspect ratio : 2.35:1\nFrame rate mode : Constant\nFrame rate : 25.000 fps\nColor space : YUV\nChroma subsampling : 4:2:0\nBit depth : 8 bits\nScan type : Progressive\nBits/(Pixel*Frame) : 0.235\nStream size : 1 016 MiB (74%)\nWriting library : x264\n\n\nAudio\nID : 2\nFormat : AAC\nFormat/Info : Advanced Audio Codec\nFormat version : Version 4\nFormat profile : LC\nFormat settings, SBR : No\nCodec ID : 40\nDuration : 1h 51mn\nBit rate mode : Variable\nBit rate : 444 Kbps\nMaximum bit rate : 511 Kbps\nChannel(s) : 6 channels\nChannel positions : Front: L C R, Side: L R, LFE\nSampling rate : 48.0 KHz\nStream size : 353 MiB (26%)\n\n\nPlot:\nA Marine platoon faces off against an alien invasion in Los Angeles.\n &lt;a href=&quot;\nhttp://www.pix2links.com/images/38031306480418645766.png&quot; rel=&quot;nofollow&quot; target=&quot;_NEW&quot;&gt;\nhttp://www.pix2links.com/images/38031306480418645766.png&lt;/a&gt; &lt;a href=&quot;\nhttp://www.pix2links.com/images/31644109681790471516.png&quot; rel=&quot;nofollow&quot; target=&quot;_NEW&quot;&gt;\nhttp://www.pix2links.com/images/31644109681790471516.png&lt;/a&gt; &lt;a href=&quot;\nhttp://www.pix2links.com/images/99690345808967235023.png&quot; rel=&quot;nofollow&quot; target=&quot;_NEW&quot;&gt;\nhttp://www.pix2links.com/images/99690345808967235023.png&lt;/a&gt; &lt;a href=&quot;\nhttp://www.pix2links.com/images/64736256735060943311.png&quot; rel=&quot;nofollow&quot; target=&quot;_NEW&quot;&gt;\nhttp://www.pix2links.com/images/64736256735060943311.png&lt;/a&gt; &lt;a href=&quot;\nhttp://www.pix2links.com/images/14252159892442477758.png&quot; rel=&quot;nofollow&quot; target=&quot;_NEW&quot;&gt;\nhttp://www.pix2links.com/images/14252159892442477758.png&lt;/a&gt;\n\nGreets:\n\nINK,CRYS,IMAGINE,LKRG,FXG,3Li,FLAWL3SS,TA,iLLUSiON,ViSiON,DTRG SAFCuk009,LU,TheFalcon007,MYSTiC,PrisM,Noir,WBZ,LAP,Rx,Kingdom,SAFCuk009+Fabreezy,HDLiTE,TWiZTED,ExtraTorrentRG.ELEKTRI4KA,MAGNAT,CM8\nAnd to all the other p2p grps past and present","torrent":{"xt":"urn:btih:1518cc59207a79c638b12e63d8bdc84e7978eff5","amp;dn":"Battle.Los.Angeles.2011.R5.NEW.AUDIO.x264.Feel-Free","amp;tr":["udp%3A%2F%2Ftracker.openbittorrent.com%3A80","udp%3A%2F%2Fopen.demonii.com%3A1337","udp%3A%2F%2Ftracker.coppersurfer.tk%3A6969","udp%3A%2F%2Fexodus.desync.com%3A6969"],"infoHash":"1518cc59207a79c638b12e63d8bdc84e7978eff5","infoHashBuffer":{"type":"Buffer","data":[21,24,204,89,32,122,121,198,56,177,46,99,216,189,200,78,121,120,239,245]},"announce":[],"urlList":[]}}